<svg width="24" height="24" viewBox="0 0 24 24" fill="none" xmlns="http://www.w3.org/2000/svg">
<path d="M11.9999 2.99999C13.8148 3.00002 15.5873 3.54874 17.0847 4.57414C18.5822 5.59954 19.7346 7.0537 20.3908 8.74578C21.0471 10.4379 21.1764 12.2888 20.7618 14.0557C20.3473 15.8226 19.4082 17.4229 18.0679 18.6466C16.7276 19.8703 15.0487 20.6601 13.2514 20.9125C11.4542 21.1649 9.62264 20.8681 7.99713 20.0609C6.37161 19.2538 5.02809 17.9741 4.14289 16.3897C3.25769 14.8053 2.87217 12.9904 3.03692 11.183C3.04874 11.0522 3.08621 10.925 3.14718 10.8087C3.20815 10.6924 3.29144 10.5892 3.39228 10.5051C3.49313 10.4209 3.60956 10.3575 3.73492 10.3184C3.86028 10.2792 3.99213 10.2652 4.12292 10.277C4.25372 10.2888 4.38091 10.3263 4.49722 10.3872C4.61354 10.4482 4.71671 10.5315 4.80084 10.6323C4.88497 10.7332 4.94841 10.8496 4.98755 10.975C5.02668 11.1003 5.04074 11.2322 5.02892 11.363C4.93277 12.3857 5.06411 13.417 5.41352 14.3829C5.76293 15.3488 6.32175 16.2255 7.04992 16.95C7.42492 17.325 7.84192 17.657 8.29192 17.938C9.40643 18.6338 10.6943 19.0018 12.0081 19.0001C13.322 18.9983 14.6088 18.6269 15.7215 17.9281C16.8342 17.2294 17.7277 16.2317 18.3 15.049C18.8722 13.8663 19.1001 12.5464 18.9575 11.2403C18.8149 9.93423 18.3076 8.69463 17.4936 7.6633C16.6796 6.63197 15.5918 5.85054 14.3546 5.40838C13.1173 4.96622 11.7807 4.88119 10.4974 5.16301C9.2141 5.44482 8.03604 6.08211 7.09792 7.00199L8.49792 7.00299C8.75426 7.00124 9.00148 7.09799 9.18853 7.27327C9.37558 7.44856 9.48818 7.68898 9.50307 7.94489C9.51795 8.2008 9.434 8.45265 9.26853 8.64844C9.10307 8.84423 8.86873 8.969 8.61392 8.99699L8.49792 9.00299H4.49592C4.25099 9.00296 4.01458 8.91303 3.83155 8.75027C3.64851 8.58751 3.53158 8.36324 3.50292 8.11999L3.49592 8.00299V4.00299C3.49417 3.74665 3.59093 3.49943 3.76621 3.31238C3.94149 3.12533 4.18191 3.01273 4.43782 2.99784C4.69373 2.98296 4.94559 3.06691 5.14138 3.23238C5.33717 3.39784 5.46194 3.63218 5.48992 3.88699L5.49592 4.00399V5.77799C6.33565 4.89894 7.34506 4.19948 8.46303 3.72197C9.58099 3.24447 10.7842 2.99885 11.9999 2.99999ZM11.2499 6.99999C11.4312 7 11.6063 7.06563 11.7429 7.18476C11.8794 7.30388 11.9683 7.46843 11.9929 7.64799L11.9999 7.74999V12H14.2499C14.4399 12 14.6229 12.0722 14.7617 12.202C14.9006 12.3317 14.985 12.5093 14.9979 12.6989C15.0109 12.8885 14.9514 13.0759 14.8315 13.2233C14.7116 13.3707 14.5402 13.4671 14.3519 13.493L14.2499 13.5H11.2499C11.0687 13.5 10.8936 13.4343 10.757 13.3152C10.6204 13.1961 10.5316 13.0315 10.5069 12.852L10.4999 12.75V7.74999C10.4999 7.55108 10.5789 7.36031 10.7196 7.21966C10.8602 7.07901 11.051 6.99999 11.2499 6.99999Z" fill="#3B3D4F"/>
</svg>
