<svg width="19" height="20" viewBox="0 0 19 20" fill="none" xmlns="http://www.w3.org/2000/svg">
<path d="M9.47559 -3.28774e-06C9.31566 0.00545797 9.16168 0.0619189 9.03613 0.16113L1.92969 5.75976C1.02774 6.47058 0.5 7.55675 0.5 8.70508V18.25C0.5 18.9318 1.0682 19.5 1.75 19.5H6.75C7.4318 19.5 8 18.9318 8 18.25V13.25C8 13.1025 8.10248 13 8.25 13H10.75C10.8975 13 11 13.1025 11 13.25V18.25C11 18.9318 11.5682 19.5 12.25 19.5H17.25C17.9318 19.5 18.5 18.9318 18.5 18.25V8.70508C18.5 7.55675 17.9723 6.47058 17.0703 5.75976L9.96387 0.16113C9.82518 0.0515672 9.65225 -0.00549892 9.47559 -3.28774e-06Z" fill="#3B3D4F"/>
</svg>
