<svg width="21" height="20" viewBox="0 0 21 20" fill="none" xmlns="http://www.w3.org/2000/svg">
<path d="M10.5 0C9.7115 0 8.95129 0.0997142 8.22554 0.268555C8.0742 0.303878 7.93757 0.385336 7.83453 0.501671C7.73149 0.618005 7.66713 0.763473 7.65034 0.917969L7.49116 2.36914C7.4391 2.84468 7.16441 3.26543 6.74995 3.50488C6.33632 3.74386 5.83426 3.77033 5.39644 3.57812L4.06245 2.99121C3.92027 2.92864 3.76217 2.91176 3.60998 2.9429C3.45779 2.97403 3.31902 3.05165 3.21284 3.16504C2.17659 4.26979 1.38129 5.60753 0.929639 7.10059C0.88465 7.24919 0.886885 7.40809 0.936037 7.55537C0.985189 7.70265 1.07883 7.83105 1.20405 7.92285L2.38667 8.79004C2.77285 9.07396 2.99995 9.5214 2.99995 10C2.99995 10.4789 2.77285 10.9267 2.38667 11.21L1.20405 12.0762C1.07883 12.168 0.985189 12.2964 0.936037 12.4437C0.886885 12.5909 0.88465 12.7498 0.929639 12.8984C1.38124 14.3913 2.17591 15.7301 3.21284 16.835C3.31914 16.9482 3.45796 17.0256 3.61014 17.0566C3.76233 17.0875 3.92037 17.0705 4.06245 17.0078L5.39546 16.4209C5.8335 16.2283 6.33604 16.256 6.74995 16.4951C7.16441 16.7346 7.4391 17.1553 7.49116 17.6309L7.65034 19.082C7.66726 19.2362 7.73156 19.3814 7.8344 19.4975C7.93724 19.6136 8.07355 19.695 8.22456 19.7305C8.95064 19.8999 9.7115 20 10.5 20C11.2884 20 12.0486 19.9003 12.7744 19.7314C12.9257 19.6961 13.0623 19.6147 13.1654 19.4983C13.2684 19.382 13.3328 19.2365 13.3496 19.082L13.5087 17.6309C13.5608 17.1553 13.8355 16.7346 14.25 16.4951C14.6636 16.2561 15.1656 16.2287 15.6035 16.4209L16.9375 17.0078C17.0795 17.0705 17.2376 17.0875 17.3898 17.0566C17.5419 17.0256 17.6808 16.9482 17.7871 16.835C18.8233 15.7302 19.6186 14.3915 20.0703 12.8984C20.1153 12.7498 20.113 12.5909 20.0639 12.4437C20.0147 12.2964 19.9211 12.168 19.7959 12.0762L18.6132 11.21C18.2271 10.9267 18 10.4789 18 10C18 9.52114 18.2271 9.07333 18.6132 8.79004L19.7959 7.92383C19.9211 7.83203 20.0147 7.70363 20.0639 7.55635C20.113 7.40907 20.1153 7.25017 20.0703 7.10156C19.6186 5.60851 18.8233 4.26979 17.7871 3.16504C17.6808 3.05182 17.5419 2.97438 17.3898 2.94342C17.2376 2.91246 17.0795 2.9295 16.9375 2.99219L15.6035 3.5791C15.1656 3.77131 14.6636 3.74386 14.25 3.50488C13.8355 3.26543 13.5608 2.84468 13.5087 2.36914L13.3496 0.917969C13.3326 0.763777 13.2683 0.618621 13.1655 0.502492C13.0627 0.386363 12.9264 0.304974 12.7753 0.269531C12.0493 0.100078 11.2884 0 10.5 0ZM10.5 7.5C11.8896 7.5 13 8.6104 13 10C13 11.3896 11.8896 12.5 10.5 12.5C9.11036 12.5 7.99995 11.3896 7.99995 10C7.99995 8.6104 9.11036 7.5 10.5 7.5Z" fill="#3B3D4F" fill-opacity="0.6"/>
</svg>
