<svg width="21" height="22" viewBox="0 0 21 22" fill="none" xmlns="http://www.w3.org/2000/svg">
<path d="M8.75 3.25C8.94891 3.25 9.13968 3.32902 9.28033 3.46967C9.42098 3.61032 9.5 3.80109 9.5 4V12H17.5C17.6812 12 17.8563 12.0656 17.9929 12.1848C18.1295 12.3039 18.2184 12.4684 18.243 12.648L18.25 12.75C18.25 17.72 14.22 21.25 9.25 21.25C6.86305 21.25 4.57387 20.3018 2.88604 18.614C1.19821 16.9261 0.25 14.6369 0.25 12.25C0.25 7.28 3.78 3.25 8.75 3.25ZM11.75 0.75C14.1369 0.75 16.4261 1.69821 18.114 3.38604C19.8018 5.07387 20.75 7.36305 20.75 9.75C20.75 9.94891 20.671 10.1397 20.5303 10.2803C20.3897 10.421 20.1989 10.5 20 10.5H11.75C11.5511 10.5 11.3603 10.421 11.2197 10.2803C11.079 10.1397 11 9.94891 11 9.75V1.5C11 1.30109 11.079 1.11032 11.2197 0.96967C11.3603 0.829018 11.5511 0.75 11.75 0.75Z" fill="#3B3D4F" fill-opacity="0.6"/>
</svg>
