<svg width="18" height="12" viewBox="0 0 18 12" fill="none" xmlns="http://www.w3.org/2000/svg">
<path d="M11.7001 10.2C11.9388 10.2 12.1677 10.2948 12.3365 10.4636C12.5053 10.6324 12.6001 10.8613 12.6001 11.1C12.6001 11.3387 12.5053 11.5676 12.3365 11.7364C12.1677 11.9052 11.9388 12 11.7001 12H6.3001C6.0614 12 5.83248 11.9052 5.6637 11.7364C5.49492 11.5676 5.4001 11.3387 5.4001 11.1C5.4001 10.8613 5.49492 10.6324 5.6637 10.4636C5.83248 10.2948 6.0614 10.2 6.3001 10.2H11.7001ZM14.1001 5.1C14.3388 5.1 14.5677 5.19482 14.7365 5.3636C14.9053 5.53239 15.0001 5.76131 15.0001 6C15.0001 6.2387 14.9053 6.46761 14.7365 6.6364C14.5677 6.80518 14.3388 6.9 14.1001 6.9H3.9001C3.6614 6.9 3.43248 6.80518 3.2637 6.6364C3.09492 6.46761 3.0001 6.2387 3.0001 6C3.0001 5.76131 3.09492 5.53239 3.2637 5.3636C3.43248 5.19482 3.6614 5.1 3.9001 5.1H14.1001ZM16.5001 0C16.7388 0 16.9677 0.094821 17.1365 0.263604C17.3053 0.432387 17.4001 0.661305 17.4001 0.9C17.4001 1.13869 17.3053 1.36761 17.1365 1.5364C16.9677 1.70518 16.7388 1.8 16.5001 1.8H1.5001C1.2614 1.8 1.03248 1.70518 0.863701 1.5364C0.694919 1.36761 0.600098 1.13869 0.600098 0.9C0.600098 0.661305 0.694919 0.432387 0.863701 0.263604C1.03248 0.094821 1.2614 0 1.5001 0H16.5001Z" fill="#3B3D4F"/>
</svg>
