<svg width="18" height="19" viewBox="0 0 18 19" fill="none" xmlns="http://www.w3.org/2000/svg">
<path d="M8.99992 0.999988C10.8148 1.00002 12.5873 1.54874 14.0847 2.57414C15.5822 3.59954 16.7346 5.0537 17.3908 6.74578C18.0471 8.43787 18.1764 10.2888 17.7618 12.0557C17.3473 13.8226 16.4082 15.4229 15.0679 16.6466C13.7276 17.8703 12.0487 18.6601 10.2514 18.9125C8.45421 19.1649 6.62264 18.8681 4.99713 18.0609C3.37161 17.2538 2.02809 15.9741 1.14289 14.3897C0.257694 12.8053 -0.127829 10.9904 0.0369219 9.18299C0.0487408 9.05219 0.0862065 8.925 0.147179 8.80869C0.208152 8.69237 0.291439 8.5892 0.392283 8.50507C0.493128 8.42094 0.609555 8.3575 0.734918 8.31836C0.860282 8.27923 0.992126 8.26517 1.12292 8.27699C1.25372 8.28881 1.38091 8.32627 1.49722 8.38725C1.61354 8.44822 1.71671 8.53151 1.80084 8.63235C1.88497 8.73319 1.94841 8.84962 1.98755 8.97498C2.02668 9.10035 2.04074 9.23219 2.02892 9.36299C1.93277 10.3857 2.06411 11.417 2.41352 12.3829C2.76293 13.3488 3.32175 14.2255 4.04992 14.95C4.42492 15.325 4.84192 15.657 5.29192 15.938C6.40643 16.6338 7.69426 17.0018 9.00812 17.0001C10.322 16.9983 11.6088 16.6269 12.7215 15.9281C13.8342 15.2294 14.7277 14.2317 15.3 13.049C15.8722 11.8663 16.1001 10.5464 15.9575 9.24033C15.8149 7.93423 15.3076 6.69463 14.4936 5.6633C13.6796 4.63197 12.5918 3.85054 11.3546 3.40838C10.1173 2.96622 8.78066 2.88119 7.49738 3.16301C6.2141 3.44482 5.03604 4.08211 4.09792 5.00199L5.49792 5.00299C5.75426 5.00124 6.00148 5.09799 6.18853 5.27327C6.37558 5.44856 6.48818 5.68898 6.50307 5.94489C6.51795 6.2008 6.434 6.45265 6.26853 6.64844C6.10307 6.84423 5.86873 6.969 5.61392 6.99699L5.49792 7.00299H1.49592C1.25099 7.00296 1.01458 6.91303 0.83155 6.75027C0.648515 6.58751 0.531579 6.36324 0.502922 6.11999L0.495922 6.00299V2.00299C0.494171 1.74665 0.590926 1.49943 0.766208 1.31238C0.94149 1.12533 1.18191 1.01273 1.43782 0.997844C1.69373 0.982956 1.94559 1.06691 2.14138 1.23238C2.33717 1.39784 2.46194 1.63218 2.48992 1.88699L2.49592 2.00399V3.77799C3.33565 2.89894 4.34506 2.19948 5.46303 1.72197C6.58099 1.24447 7.78425 0.998846 8.99992 0.999988ZM8.24992 4.99999C8.43116 5 8.60626 5.06563 8.74285 5.18476C8.87944 5.30388 8.96827 5.46843 8.99292 5.64799L8.99992 5.74999V9.99999H11.2499C11.4399 10 11.6229 10.0722 11.7617 10.202C11.9006 10.3317 11.985 10.5093 11.9979 10.6989C12.0109 10.8885 11.9514 11.0759 11.8315 11.2233C11.7116 11.3707 11.5402 11.4671 11.3519 11.493L11.2499 11.5H8.24992C8.06868 11.5 7.89358 11.4343 7.75699 11.3152C7.6204 11.1961 7.53157 11.0315 7.50692 10.852L7.49992 10.75V5.74999C7.49992 5.55108 7.57894 5.36031 7.71959 5.21966C7.86024 5.07901 8.05101 4.99999 8.24992 4.99999Z" fill="#3B3D4F"/>
</svg>
