<svg width="21" height="20" viewBox="0 0 21 20" fill="none" xmlns="http://www.w3.org/2000/svg">
<path fill-rule="evenodd" clip-rule="evenodd" d="M17.75 3H18.5C19.0701 2.99993 19.619 3.2163 20.0358 3.60537C20.4525 3.99444 20.706 4.52721 20.745 5.096L20.75 5.25V14.75C20.7501 15.3201 20.5337 15.869 20.1446 16.2858C19.7556 16.7025 19.2228 16.956 18.654 16.995L18.5 17H17.75V3ZM3.75 17H3C2.42987 17.0001 1.88098 16.7837 1.46425 16.3946C1.04751 16.0056 0.794022 15.4728 0.755 14.904L0.75 14.75V5.25C0.74993 4.67987 0.966295 4.13098 1.35537 3.71425C1.74444 3.29751 2.27721 3.04402 2.846 3.005L3 3H3.75V17Z" fill="#3B3D4F"/>
<path fill-rule="evenodd" clip-rule="evenodd" d="M16.75 17.75C16.7501 18.3201 16.5337 18.869 16.1446 19.2858C15.7556 19.7025 15.2228 19.956 14.654 19.995L14.5 20H7C6.42987 20.0001 5.88098 19.7837 5.46425 19.3946C5.04751 19.0056 4.79402 18.4728 4.755 17.904L4.75 17.75V2.25C4.74993 1.67987 4.9663 1.13098 5.35537 0.714247C5.74444 0.297514 6.27721 0.0440221 6.846 0.00500013L7 1.69987e-08H14.5C15.0701 -7.00219e-05 15.619 0.216295 16.0358 0.605369C16.4525 0.994443 16.706 1.52721 16.745 2.096L16.75 2.25V17.75ZM7.96967 5.21967C8.11032 5.07902 8.30109 5 8.5 5H13C13.1989 5 13.3897 5.07902 13.5303 5.21967C13.671 5.36032 13.75 5.55109 13.75 5.75C13.75 5.94891 13.671 6.13968 13.5303 6.28033C13.3897 6.42098 13.1989 6.5 13 6.5H8.5C8.30109 6.5 8.11032 6.42098 7.96967 6.28033C7.82902 6.13968 7.75 5.94891 7.75 5.75C7.75 5.55109 7.82902 5.36032 7.96967 5.21967ZM8.5 10.5C8.086 10.5 7.75 10.164 7.75 9.75C7.75 9.55109 7.82902 9.36032 7.96967 9.21967C8.11032 9.07902 8.30109 9 8.5 9H13C13.1989 9 13.3897 9.07902 13.5303 9.21967C13.671 9.36032 13.75 9.55109 13.75 9.75C13.75 9.94891 13.671 10.1397 13.5303 10.2803C13.3897 10.421 13.1989 10.5 13 10.5H8.5ZM7.96967 13.2197C8.11032 13.079 8.30109 13 8.5 13H13C13.1989 13 13.3897 13.079 13.5303 13.2197C13.671 13.3603 13.75 13.5511 13.75 13.75C13.75 13.9489 13.671 14.1397 13.5303 14.2803C13.3897 14.421 13.1989 14.5 13 14.5H8.5C8.30109 14.5 8.11032 14.421 7.96967 14.2803C7.82902 14.1397 7.75 13.9489 7.75 13.75C7.75 13.5511 7.82902 13.3603 7.96967 13.2197Z" fill="#3B3D4F"/>
</svg>
