<svg width="10" height="17" viewBox="0 0 10 17" fill="none" xmlns="http://www.w3.org/2000/svg">
<path d="M1.29308 0.293031C1.10561 0.480558 1.00029 0.734866 1.00029 1.00003C1.00029 1.26519 1.10561 1.5195 1.29308 1.70703L7.58608 8.00003L1.29308 14.293C1.19757 14.3853 1.12139 14.4956 1.06898 14.6176C1.01657 14.7396 0.988985 14.8709 0.987831 15.0036C0.986677 15.1364 1.01198 15.2681 1.06226 15.391C1.11254 15.5139 1.18679 15.6255 1.28069 15.7194C1.37458 15.8133 1.48623 15.8876 1.60913 15.9379C1.73202 15.9881 1.8637 16.0134 1.99648 16.0123C2.12926 16.0111 2.26048 15.9835 2.38249 15.9311C2.50449 15.8787 2.61483 15.8025 2.70708 15.707L9.70708 8.70703C9.89455 8.5195 9.99987 8.26519 9.99987 8.00003C9.99987 7.73487 9.89455 7.48056 9.70708 7.29303L2.70708 0.293031C2.51955 0.10556 2.26525 0.000244141 2.00008 0.000244141C1.73492 0.000244141 1.48061 0.10556 1.29308 0.293031Z" fill="#3B3D4F" fill-opacity="0.7"/>
</svg>
