<svg width="21" height="18" viewBox="0 0 21 18" fill="none" xmlns="http://www.w3.org/2000/svg">
<path d="M13.254 7C14.22 7 15.004 7.784 15.004 8.75V13.499C15.004 14.6927 14.5298 15.8376 13.6857 16.6817C12.8416 17.5258 11.6967 18 10.503 18C9.30926 18 8.16441 17.5258 7.32031 16.6817C6.47621 15.8376 6.002 14.6927 6.002 13.499V8.75C6.002 7.784 6.785 7 7.752 7H13.254ZM10.5 0C11.2956 0 12.0587 0.316071 12.6213 0.87868C13.1839 1.44129 13.5 2.20435 13.5 3C13.5 3.79565 13.1839 4.55871 12.6213 5.12132C12.0587 5.68393 11.2956 6 10.5 6C9.70435 6 8.94129 5.68393 8.37868 5.12132C7.81607 4.55871 7.5 3.79565 7.5 3C7.5 2.20435 7.81607 1.44129 8.37868 0.87868C8.94129 0.316071 9.70435 0 10.5 0ZM17 1C17.663 1 18.2989 1.26339 18.7678 1.73223C19.2366 2.20107 19.5 2.83696 19.5 3.5C19.5 4.16304 19.2366 4.79893 18.7678 5.26777C18.2989 5.73661 17.663 6 17 6C16.337 6 15.7011 5.73661 15.2322 5.26777C14.7634 4.79893 14.5 4.16304 14.5 3.5C14.5 2.83696 14.7634 2.20107 15.2322 1.73223C15.7011 1.26339 16.337 1 17 1ZM4 1C4.66304 1 5.29893 1.26339 5.76777 1.73223C6.23661 2.20107 6.5 2.83696 6.5 3.5C6.5 4.16304 6.23661 4.79893 5.76777 5.26777C5.29893 5.73661 4.66304 6 4 6C3.33696 6 2.70107 5.73661 2.23223 5.26777C1.76339 4.79893 1.5 4.16304 1.5 3.5C1.5 2.83696 1.76339 2.20107 2.23223 1.73223C2.70107 1.26339 3.33696 1 4 1Z" fill="#3B3D4F" fill-opacity="0.6"/>
<path d="M2.25 7H5.631C5.2782 7.42609 5.06274 7.94905 5.013 8.5L5.082 14.432C5.167 14.936 5.322 15.417 5.535 15.864C4.94228 16.0226 4.32103 16.0427 3.71929 15.9228C3.11756 15.8029 2.55145 15.5463 2.06475 15.1727C1.57805 14.7991 1.18379 14.3185 0.912463 13.7682C0.641138 13.2179 0.500012 12.6126 0.5 11.999V8.75C0.5 7.784 1.284 7 2.25 7Z" fill="#3B3D4F" fill-opacity="0.6"/>
<path d="M15.375 7H18.75C19.716 7 20.5 7.784 20.5 8.75V12C20.5001 12.6132 20.3593 13.2182 20.0884 13.7682C19.8175 14.3183 19.4237 14.7987 18.9376 15.1724C18.4514 15.546 17.8858 15.8029 17.2846 15.9232C16.6833 16.0435 16.0625 16.0239 15.47 15.866C15.684 15.418 15.839 14.937 15.925 14.433L15.993 8.5C15.9433 7.94905 15.7278 7.42609 15.375 7Z" fill="#3B3D4F" fill-opacity="0.6"/>
</svg>
