<svg width="46" height="46" viewBox="0 0 46 46" fill="none" xmlns="http://www.w3.org/2000/svg">
<rect width="46" height="46" rx="23" fill="#3B3D4F"/>
<path d="M28.6 23.4C29.2365 23.4 29.847 23.6529 30.2971 24.1029C30.7471 24.553 31 25.1635 31 25.8V26.6C31 29.7552 28.024 33 23 33C17.976 33 15 29.7552 15 26.6V25.8C15 25.1635 15.2529 24.553 15.7029 24.1029C16.153 23.6529 16.7635 23.4 17.4 23.4H28.6ZM28.6 25H17.4C17.1878 25 16.9843 25.0843 16.8343 25.2343C16.6843 25.3843 16.6 25.5878 16.6 25.8V26.6C16.6 28.9008 18.8912 31.4 23 31.4C27.1088 31.4 29.4 28.9008 29.4 26.6V25.8C29.4 25.5878 29.3157 25.3843 29.1657 25.2343C29.0157 25.0843 28.8122 25 28.6 25ZM23 13C24.167 13 25.2861 13.4636 26.1113 14.2887C26.9364 15.1139 27.4 16.233 27.4 17.4C27.4 18.567 26.9364 19.6861 26.1113 20.5113C25.2861 21.3364 24.167 21.8 23 21.8C21.833 21.8 20.7139 21.3364 19.8887 20.5113C19.0636 19.6861 18.6 18.567 18.6 17.4C18.6 16.233 19.0636 15.1139 19.8887 14.2887C20.7139 13.4636 21.833 13 23 13ZM23 14.6C22.2574 14.6 21.5452 14.895 21.0201 15.4201C20.495 15.9452 20.2 16.6574 20.2 17.4C20.2 18.1426 20.495 18.8548 21.0201 19.3799C21.5452 19.905 22.2574 20.2 23 20.2C23.7426 20.2 24.4548 19.905 24.9799 19.3799C25.505 18.8548 25.8 18.1426 25.8 17.4C25.8 16.6574 25.505 15.9452 24.9799 15.4201C24.4548 14.895 23.7426 14.6 23 14.6Z" fill="white"/>
</svg>
