<svg width="21" height="19" viewBox="0 0 21 19" fill="none" xmlns="http://www.w3.org/2000/svg">
<path d="M13 12C13.966 12 14.75 12.784 14.75 13.75L14.749 14.712C14.866 16.902 13.238 18.009 10.317 18.009C7.407 18.009 5.75 16.919 5.75 14.75V13.75C5.75 12.784 6.534 12 7.5 12H13ZM2 7H6.376C6.20152 7.67899 6.20823 8.39188 6.39546 9.06746C6.5827 9.74305 6.9439 10.3577 7.443 10.85L7.605 11.001L7.5 11C6.89983 10.9998 6.31606 11.1959 5.83778 11.5585C5.35949 11.921 5.01294 12.4301 4.851 13.008L4.817 13.009C1.907 13.009 0.25 11.919 0.25 9.75V8.75C0.25 7.784 1.034 7 2 7ZM18.5 7C19.466 7 20.25 7.784 20.25 8.75L20.249 9.712C20.366 11.902 18.738 13.009 15.817 13.009L15.648 13.007C15.4943 12.4623 15.1765 11.9781 14.738 11.6203C14.2995 11.2625 13.7615 11.0484 13.197 11.007L13 11L12.895 11.001C13.4501 10.5134 13.8589 9.88129 14.0759 9.17504C14.2929 8.46879 14.3096 7.71615 14.124 7.001L18.5 7ZM10.25 5C10.644 5 11.0341 5.0776 11.3981 5.22836C11.762 5.37913 12.0927 5.6001 12.3713 5.87868C12.6499 6.15726 12.8709 6.48797 13.0216 6.85195C13.1724 7.21593 13.25 7.60603 13.25 8C13.25 8.39397 13.1724 8.78407 13.0216 9.14805C12.8709 9.51203 12.6499 9.84274 12.3713 10.1213C12.0927 10.3999 11.762 10.6209 11.3981 10.7716C11.0341 10.9224 10.644 11 10.25 11C9.45435 11 8.69129 10.6839 8.12868 10.1213C7.56607 9.55871 7.25 8.79565 7.25 8C7.25 7.20435 7.56607 6.44129 8.12868 5.87868C8.69129 5.31607 9.45435 5 10.25 5ZM4.75 0C5.54565 0 6.30871 0.316071 6.87132 0.87868C7.43393 1.44129 7.75 2.20435 7.75 3C7.75 3.79565 7.43393 4.55871 6.87132 5.12132C6.30871 5.68393 5.54565 6 4.75 6C3.95435 6 3.19129 5.68393 2.62868 5.12132C2.06607 4.55871 1.75 3.79565 1.75 3C1.75 2.20435 2.06607 1.44129 2.62868 0.87868C3.19129 0.316071 3.95435 0 4.75 0ZM15.75 0C16.5456 0 17.3087 0.316071 17.8713 0.87868C18.4339 1.44129 18.75 2.20435 18.75 3C18.75 3.79565 18.4339 4.55871 17.8713 5.12132C17.3087 5.68393 16.5456 6 15.75 6C14.9544 6 14.1913 5.68393 13.6287 5.12132C13.0661 4.55871 12.75 3.79565 12.75 3C12.75 2.20435 13.0661 1.44129 13.6287 0.87868C14.1913 0.316071 14.9544 0 15.75 0Z" fill="#3B3D4F"/>
</svg>
