<svg width="20" height="18" viewBox="0 0 20 18" fill="none" xmlns="http://www.w3.org/2000/svg">
<path d="M16.6034 2.5L17.7498 3.64645C17.9451 3.84171 17.9451 4.15829 17.7498 4.35355L16.6034 5.5C16.3272 5.77614 16.3272 6.22386 16.6034 6.5C16.8795 6.77614 17.3272 6.77614 17.6034 6.5L19.7498 4.35355C19.9451 4.15829 19.9451 3.84171 19.7498 3.64645L17.6034 1.5C17.3272 1.22386 16.8795 1.22386 16.6034 1.5C16.3272 1.77614 16.3272 2.22386 16.6034 2.5Z" fill="#3B3D4F"/>
<path d="M0.749956 2C0.749956 0.895431 1.64539 0 2.74996 0H11.2498C12.3544 0 13.2498 0.895431 13.2498 2V3H0.749956V2Z" fill="#3B3D4F"/>
<path d="M13.2498 7H8.24996C6.24996 7.5 5.74996 9.5 5.74996 9.5H2.74996C1.64539 9.5 0.749956 8.60457 0.749956 7.5V4.5H13.2498V7Z" fill="#3B3D4F"/>
<path d="M7.24992 10.5001C7.24987 9.39548 8.14531 8.5 9.24992 8.5H17.7499C18.8545 8.5 19.7499 9.39538 19.7499 10.4999L19.75 11.5H7.24996L7.24992 10.5001Z" fill="#3B3D4F"/>
<path d="M19.7499 16C19.7499 17.1046 18.8544 18 17.7499 18H9.24988C8.14529 18 7.24986 17.1045 7.24988 16L7.24996 13H19.75L19.7499 16Z" fill="#3B3D4F"/>
<path d="M3.89641 13L2.74996 14.1464C2.5547 14.3417 2.5547 14.6583 2.74996 14.8536L3.89641 16C4.17255 16.2761 4.17255 16.7239 3.89641 17C3.62027 17.2761 3.17255 17.2761 2.89641 17L0.749962 14.8536C0.5547 14.6583 0.5547 14.3417 0.749962 14.1464L2.89641 12C3.17255 11.7239 3.62027 11.7239 3.89641 12C4.17255 12.2761 4.17255 12.7239 3.89641 13Z" fill="#3B3D4F"/>
</svg>
