<svg width="18" height="12" viewBox="0 0 18 12" fill="none" xmlns="http://www.w3.org/2000/svg">
<path d="M0.75 1.75C0.75 0.784 1.534 0 2.5 0H16C16.966 0 17.75 0.784 17.75 1.75V10.25C17.75 10.7141 17.5656 11.1592 17.2374 11.4874C16.9092 11.8156 16.4641 12 16 12H2.5C2.03587 12 1.59075 11.8156 1.26256 11.4874C0.934375 11.1592 0.75 10.7141 0.75 10.25V1.75ZM3.75 1.25V2.25C3.75 2.44891 3.67098 2.63968 3.53033 2.78033C3.38968 2.92098 3.19891 3 3 3H2V4.5H3C3.29547 4.5 3.58806 4.4418 3.86104 4.32873C4.13402 4.21566 4.38206 4.04992 4.59099 3.84099C4.79992 3.63206 4.96566 3.38402 5.07873 3.11104C5.1918 2.83805 5.25 2.54547 5.25 2.25V1.25H3.75ZM9.25 8.5C9.84674 8.5 10.419 8.26295 10.841 7.84099C11.2629 7.41903 11.5 6.84674 11.5 6.25C11.5 5.65326 11.2629 5.08097 10.841 4.65901C10.419 4.23705 9.84674 4 9.25 4C8.65326 4 8.08097 4.23705 7.65901 4.65901C7.23705 5.08097 7 5.65326 7 6.25C7 6.84674 7.23705 7.41903 7.65901 7.84099C8.08097 8.26295 8.65326 8.5 9.25 8.5ZM2 9H3C3.19891 9 3.38968 9.07902 3.53033 9.21967C3.67098 9.36032 3.75 9.55109 3.75 9.75V10.75H5.25V9.75C5.25 9.15326 5.01295 8.58097 4.59099 8.15901C4.16903 7.73705 3.59674 7.5 3 7.5H2V9ZM14.75 9.75C14.75 9.55109 14.829 9.36032 14.9697 9.21967C15.1103 9.07902 15.3011 9 15.5 9H16.5V7.5H15.5C14.9033 7.5 14.331 7.73705 13.909 8.15901C13.4871 8.58097 13.25 9.15326 13.25 9.75V10.75H14.75V9.75ZM14.75 2.25V1.25H13.25V2.25C13.25 2.54547 13.3082 2.83805 13.4213 3.11104C13.5343 3.38402 13.7001 3.63206 13.909 3.84099C14.331 4.26295 14.9033 4.5 15.5 4.5H16.5V3H15.5C15.3011 3 15.1103 2.92098 14.9697 2.78033C14.829 2.63968 14.75 2.44891 14.75 2.25Z" fill="#3B3D4F"/>
</svg>
